<svg xmlns="http://www.w3.org/2000/svg" width="1200" height="300" viewBox="0 0 1200 300">
  <defs>
    <linearGradient id="g" x1="0" x2="1" y1="0" y2="0">
      <stop offset="0" stop-color="#00d1ff"/>
      <stop offset="1" stop-color="#7cff6b"/>
    </linearGradient>
    <filter id="shadow" x="-20%" y="-20%" width="140%" height="140%">
      <feDropShadow dx="0" dy="8" stdDeviation="10" flood-color="#000" flood-opacity="0.35"/>
    </filter>
  </defs>
  <rect x="0" y="0" width="1200" height="300" fill="#0b1020"/>
  <g filter="url(#shadow)">
    <path d="M170 150c0-44 36-80 80-80h120c44 0 80 36 80 80s-36 80-80 80H250c-44 0-80-36-80-80z" fill="url(#g)" opacity="0.9"/>
    <path d="M270 150c0-27 22-49 49-49h220c27 0 49 22 49 49s-22 49-49 49H319c-27 0-49-22-49-49z" fill="#0b1020" opacity="0.92"/>
    <circle cx="335" cy="150" r="18" fill="url(#g)"/>
    <circle cx="440" cy="150" r="18" fill="url(#g)"/>
    <circle cx="545" cy="150" r="18" fill="url(#g)"/>
    <path d="M353 150h69M458 150h69" stroke="url(#g)" stroke-width="10" stroke-linecap="round"/>
  </g>
  <text x="650" y="170" font-family="ui-sans-serif,system-ui,-apple-system,Segoe UI,Roboto,Arial" font-size="96" font-weight="800" fill="#ffffff">Kwekha</text>
  <text x="650" y="225" font-family="ui-sans-serif,system-ui,-apple-system,Segoe UI,Roboto,Arial" font-size="28" font-weight="500" fill="#a9b2d6">
    gost tunnel manager • wizard • systemd • telegram
  </text>
</svg>
